<?xml version="1.0" encoding="UTF-8" standalone="no"?>
<svg
   viewBox="0 0 48 48"
   version="1.1"
   id="svg2"
   sodipodi:docname="battery_empty.svg"
   inkscape:version="1.4-beta (62f545ba5e, 2024-04-22)"
   xmlns:inkscape="http://www.inkscape.org/namespaces/inkscape"
   xmlns:sodipodi="http://sodipodi.sourceforge.net/DTD/sodipodi-0.dtd"
   xmlns="http://www.w3.org/2000/svg"
   xmlns:svg="http://www.w3.org/2000/svg">
  <defs
     id="defs2" />
  <sodipodi:namedview
     id="namedview2"
     pagecolor="#000000"
     bordercolor="#000000"
     borderopacity="0.25"
     inkscape:showpageshadow="2"
     inkscape:pageopacity="0.0"
     inkscape:pagecheckerboard="0"
     inkscape:deskcolor="#d1d1d1"
     inkscape:zoom="17.854167"
     inkscape:cx="24"
     inkscape:cy="24"
     inkscape:window-width="1920"
     inkscape:window-height="1111"
     inkscape:window-x="-9"
     inkscape:window-y="-9"
     inkscape:window-maximized="1"
     inkscape:current-layer="svg2" />
  <style
     id="style1" />
  <g
     id="Your_Icons">
    <path
       d="M0-.004h48v48H0v-48z"
       fill="none"
       id="path1" />
    <path
       fill="white"
       d="M35 9.996h-3v-4a2 2 0 00-2-2H18a2 2 0 00-2 2v4h-3a2 2 0 00-2 2v30a2 2 0 002 2h22a2 2 0 002-2v-30a2 2 0 00-2-2zm-15-2h8v2h-8v-2zm13 32H15v-26h18v26z"
       id="path2" />
  </g>
</svg>
