<?xml version="1.0" encoding="UTF-8" standalone="no"?>
<svg
   viewBox="0 0 21.333336 40"
   version="1.1"
   id="svg1"
   sodipodi:docname="arrow_left_three.svg"
   width="21.333334"
   height="40"
   inkscape:version="1.4-beta (62f545ba5e, 2024-04-22)"
   xmlns:inkscape="http://www.inkscape.org/namespaces/inkscape"
   xmlns:sodipodi="http://sodipodi.sourceforge.net/DTD/sodipodi-0.dtd"
   xmlns="http://www.w3.org/2000/svg"
   xmlns:svg="http://www.w3.org/2000/svg"
   xmlns:rdf="http://www.w3.org/1999/02/22-rdf-syntax-ns#"
   xmlns:cc="http://creativecommons.org/ns#"
   xmlns:dc="http://purl.org/dc/elements/1.1/">
  <defs
     id="defs1" />
  <sodipodi:namedview
     id="namedview1"
     pagecolor="#000000"
     bordercolor="#000000"
     borderopacity="0.25"
     inkscape:showpageshadow="2"
     inkscape:pageopacity="0.0"
     inkscape:pagecheckerboard="0"
     inkscape:deskcolor="#d1d1d1"
     inkscape:zoom="12.624802"
     inkscape:cx="-11.128887"
     inkscape:cy="22.772634"
     inkscape:window-width="1920"
     inkscape:window-height="1111"
     inkscape:window-x="-9"
     inkscape:window-y="-9"
     inkscape:window-maximized="1"
     inkscape:current-layer="svg1" />
  <title
     id="title1">Artboard-1</title>
  <g
     id="g2"
     transform="translate(0,5.0122881)">
    <g
       id="Right-4"
       data-name="Right"
       style="fill:#ffffff;fill-opacity:1;stroke:none;stroke-width:0;stroke-dasharray:none;stroke-opacity:1"
       transform="matrix(-1,0,0,1,22.66656,3)">
      <path
         d="m 18.707,12.707 -3,3 A 1,1 0 0 1 14.293,14.293 L 15.586,13 H 6 a 1,1 0 0 1 0,-2 h 9.586 L 14.293,9.707 a 1,1 0 0 1 1.414,-1.414 l 3,3 a 1,1 0 0 1 0,1.414 z"
         style="fill:#ffffff;fill-opacity:1;stroke:none;stroke-width:0;stroke-dasharray:none;stroke-opacity:1"
         id="path1" />
    </g>
    <path
       d="m 3.9595602,6.6947118 3,3 a 1,1 0 0 0 1.414,-1.414 l -1.293,-1.293 H 16.66656 a 1,1 0 0 0 0,-2 H 7.0805602 l 1.293,-1.293 a 1,1 0 0 0 -1.414,-1.414 l -3,3 a 1,1 0 0 0 0,1.414 z"
       style="fill:#ffffff;fill-opacity:1;stroke:none;stroke-width:0;stroke-dasharray:none;stroke-opacity:1"
       id="path1-8" />
    <g
       id="g1">
      <g
         id="Right-4-8-5"
         data-name="Right"
         style="fill:#ffffff;fill-opacity:1;stroke:none;stroke-width:0;stroke-dasharray:none;stroke-opacity:1"
         transform="matrix(-1,0,0,1,22.66656,11.987712)">
        <path
           d="m 18.707,12.707 -3,3 A 1,1 0 0 1 14.293,14.293 L 15.586,13 H 6 a 1,1 0 0 1 0,-2 h 9.586 L 14.293,9.707 a 1,1 0 0 1 1.414,-1.414 l 3,3 a 1,1 0 0 1 0,1.414 z"
           style="fill:#ffffff;fill-opacity:1;stroke:none;stroke-width:0;stroke-dasharray:none;stroke-opacity:1"
           id="path1-8-1" />
      </g>
    </g>
  </g>
  <metadata
     id="metadata1">
    <rdf:RDF>
      <cc:Work
         rdf:about="">
        <dc:title>Artboard-1</dc:title>
      </cc:Work>
    </rdf:RDF>
  </metadata>
</svg>
