<?xml version="1.0" encoding="UTF-8" standalone="no"?>
<svg
   version="1.1"
   id="Layer_1"
   x="0px"
   y="0px"
   viewBox="0 0 155 155"
   xml:space="preserve"
   sodipodi:docname="clock.svg"
   width="155"
   height="155"
   inkscape:version="1.4-beta (62f545ba5e, 2024-04-22)"
   xmlns:inkscape="http://www.inkscape.org/namespaces/inkscape"
   xmlns:sodipodi="http://sodipodi.sourceforge.net/DTD/sodipodi-0.dtd"
   xmlns="http://www.w3.org/2000/svg"
   xmlns:svg="http://www.w3.org/2000/svg"><defs
     id="defs1" /><sodipodi:namedview
     id="namedview1"
     pagecolor="#000000"
     bordercolor="#000000"
     borderopacity="0.25"
     inkscape:showpageshadow="2"
     inkscape:pageopacity="0.0"
     inkscape:pagecheckerboard="0"
     inkscape:deskcolor="#d1d1d1"
     inkscape:zoom="4.7810873"
     inkscape:cx="27.608782"
     inkscape:cy="58.04119"
     inkscape:window-width="2560"
     inkscape:window-height="1369"
     inkscape:window-x="-8"
     inkscape:window-y="-8"
     inkscape:window-maximized="1"
     inkscape:current-layer="Layer_1" /><style
     type="text/css"
     id="style1">.st0{fill-rule:evenodd;clip-rule:evenodd;}</style><g
     id="g1"
     style="fill:#ffffff;fill-opacity:1"
     transform="translate(16.06,16.06)"><path
       class="st0"
       d="m 61.44,0 c 33.93,0 61.44,27.51 61.44,61.44 0,33.93 -27.51,61.44 -61.44,61.44 C 27.51,122.88 0,95.37 0,61.44 0,27.51 27.51,0 61.44,0 Z m -8.52,30.52 h 7.51 c 1.37,0 2.5,1.13 2.5,2.5 v 28.94 h 26.41 c 1.38,0 2.5,1.13 2.5,2.5 v 7.51 c 0,1.38 -1.13,2.5 -2.5,2.5 H 50.41 V 33.02 c 0,-1.38 1.13,-2.5 2.51,-2.5 z m 8.52,-16.57 c 26.23,0 47.49,21.26 47.49,47.49 0,26.23 -21.26,47.49 -47.49,47.49 -26.23,0 -47.49,-21.26 -47.49,-47.49 0,-26.22 21.26,-47.49 47.49,-47.49 z"
       id="path1"
       style="fill:#ffffff;fill-opacity:1" /></g></svg>
