<?xml version="1.0" encoding="UTF-8" standalone="no"?>
<svg
   viewBox="0 0 20 30"
   version="1.1"
   xml:space="preserve"
   x="0px"
   y="0px"
   fill-rule="evenodd"
   clip-rule="evenodd"
   stroke-linejoin="round"
   stroke-miterlimit="1.41421"
   id="svg3"
   sodipodi:docname="corner_left.svg"
   width="20"
   height="30"
   inkscape:version="1.4-beta (62f545ba5e, 2024-04-22)"
   xmlns:inkscape="http://www.inkscape.org/namespaces/inkscape"
   xmlns:sodipodi="http://sodipodi.sourceforge.net/DTD/sodipodi-0.dtd"
   xmlns="http://www.w3.org/2000/svg"
   xmlns:svg="http://www.w3.org/2000/svg"><defs
     id="defs3" /><sodipodi:namedview
     id="namedview3"
     pagecolor="#000000"
     bordercolor="#000000"
     borderopacity="0.25"
     inkscape:showpageshadow="2"
     inkscape:pageopacity="0.0"
     inkscape:pagecheckerboard="0"
     inkscape:deskcolor="#d1d1d1"
     inkscape:zoom="29.375"
     inkscape:cx="16"
     inkscape:cy="14.553191"
     inkscape:window-width="2560"
     inkscape:window-height="1369"
     inkscape:window-x="-8"
     inkscape:window-y="-8"
     inkscape:window-maximized="1"
     inkscape:current-layer="svg3" /><path
     d="m 3.9170902,20.009664 c -0.464,-0.047 -0.862,-0.405 -0.925,-0.864 -0.009,-0.06 -0.008,-0.076 -0.01,-0.136 V 6.9736641 c 0.002,-0.061 10e-4,-0.076 0.01,-0.137 0.091,-0.665 0.97,-1.107 1.5719999,-0.682 0.223,0.158 0.377,0.411 0.415,0.682 0.008,0.061 0.007,0.076 0.009,0.137 V 18.006664 H 16.021091 l 0.068,0.002 c 0.061,0.006 0.076,0.006 0.136,0.019 0.557,0.115 0.936,0.768 0.741,1.317 -0.122,0.344 -0.446,0.608 -0.809,0.658 -0.06,0.008 -0.075,0.007 -0.136,0.01 H 3.9850902 c -0.023,-0.001 -0.045,-0.002 -0.068,-0.003 z"
     style="fill:#ffffff;fill-opacity:1"
     fill-rule="nonzero"
     id="path2" /></svg>
