<?xml version="1.0" encoding="UTF-8" standalone="no"?>
<svg
   viewBox="0 0 120.52655 33.810001"
   version="1.1"
   id="svg3"
   sodipodi:docname="evcc.svg"
   width="120.52655"
   height="33.810001"
   inkscape:version="1.4-beta (62f545ba5e, 2024-04-22)"
   xmlns:inkscape="http://www.inkscape.org/namespaces/inkscape"
   xmlns:sodipodi="http://sodipodi.sourceforge.net/DTD/sodipodi-0.dtd"
   xmlns="http://www.w3.org/2000/svg"
   xmlns:svg="http://www.w3.org/2000/svg"
   xmlns:rdf="http://www.w3.org/1999/02/22-rdf-syntax-ns#"
   xmlns:cc="http://creativecommons.org/ns#"
   xmlns:dc="http://purl.org/dc/elements/1.1/">
  <defs
     id="defs3" />
  <sodipodi:namedview
     id="namedview3"
     pagecolor="#000000"
     bordercolor="#000000"
     borderopacity="0.25"
     inkscape:showpageshadow="2"
     inkscape:pageopacity="0.0"
     inkscape:pagecheckerboard="0"
     inkscape:deskcolor="#d1d1d1"
     inkscape:zoom="10.735294"
     inkscape:cx="56.309589"
     inkscape:cy="15.136986"
     inkscape:window-width="1920"
     inkscape:window-height="1111"
     inkscape:window-x="-9"
     inkscape:window-y="-9"
     inkscape:window-maximized="1"
     inkscape:current-layer="svg3" />
  <title
     id="title1">evcc Logo</title>
  <path
     fill="#ffffff"
     d="M 12.551083,28.32 A 12.38,12.38 0 0 1 3.5510832,24.9 12.19,12.19 0 0 1 0.01108316,15.78 v -0.64 a 15.4,15.4 0 0 1 1.47000004,-6.83 10.82,10.82 0 0 1 4.17,-4.64 11.63,11.63 0 0 1 6.1499998,-1.63 10.44,10.44 0 0 1 8.21,3.26 q 3,3.29 3,9.31 v 2.76 H 6.8510832 a 6.35,6.35 0 0 0 2,4 6,6 0 0 0 4.1599998,1.49 7.3,7.3 0 0 0 6.1,-2.84 l 3.31,3.73 a 10,10 0 0 1 -4.13,3.39 13.32,13.32 0 0 1 -5.74,1.18 z m -0.77,-20.84 a 4.21,4.21 0 0 0 -3.2599998,1.37 7.14,7.14 0 0 0 -1.6,3.91 h 9.3899998 v -0.55 a 5,5 0 0 0 -1.22,-3.49 4.3,4.3 0 0 0 -3.31,-1.24 z m 24.14,12.1 4.7,-17.09 h 7 l -8.48,25.36 h -6.44 l -8.52,-25.36 h 7 z m 49.09,3.28 a 4.45,4.45 0 0 0 3,-1 3.64,3.64 0 0 0 1.22,-2.75 h 6.32 a 8.67,8.67 0 0 1 -1.4,4.73 9.15,9.15 0 0 1 -3.79,3.3 11.75,11.75 0 0 1 -5.29,1.19 10.91,10.91 0 0 1 -8.54,-3.46 q -3.13,-3.45 -3.13,-9.55 v -0.45 q 0,-5.85 3.1,-9.35 a 10.86,10.86 0 0 1 8.51,-3.5 10.59,10.59 0 0 1 7.6,2.71 9.62,9.62 0 0 1 2.9,7.21 h -6.3 a 4.66,4.66 0 0 0 -1.2,-3.22 4,4 0 0 0 -3.08,-1.24 4.06,4.06 0 0 0 -3.56,1.73 c -0.8,1.15 -1.2,3 -1.2,5.6 v 0.7 c 0,2.61 0.39,4.49 1.19,5.63 a 4.09,4.09 0 0 0 3.65,1.72 z m 24.879997,0 a 4.46,4.46 0 0 0 3,-1 3.63,3.63 0 0 0 1.21,-2.75 h 6.33 a 8.67,8.67 0 0 1 -1.4,4.73 9.15,9.15 0 0 1 -3.73,3.3 11.78,11.78 0 0 1 -5.29,1.18 10.91,10.91 0 0 1 -8.54,-3.46 q -3.129997,-3.45 -3.129997,-9.55 v -0.45 q 0,-5.85 3.099997,-9.35 a 10.84,10.84 0 0 1 8.57,-3.49 10.57,10.57 0 0 1 7.6,2.71 9.59,9.59 0 0 1 2.91,7.21 h -6.33 a 4.65,4.65 0 0 0 -1.21,-3.22 4.49,4.49 0 0 0 -6.64,0.49 c -0.8,1.15 -1.21,3 -1.21,5.6 v 0.7 q 0,3.91 1.2,5.63 a 4.09,4.09 0 0 0 3.56,1.72 z"
     class="header__logo__letters"
     id="path1" />
  <path
     d="m 57.931083,0 h 9.22 l -6.14,12.3 h 6.15 l -11.53,21.51 2.3,-15.36 h -7.68 z"
     fill="#0fdd42"
     id="path2" />
  <path
     d="M -24.988917,-22.86 H 145.01108 v 76 H -24.988917 Z"
     fill="none"
     id="path3" />
  <metadata
     id="metadata3">
    <rdf:RDF>
      <cc:Work
         rdf:about="">
        <dc:title>evcc Logo</dc:title>
      </cc:Work>
    </rdf:RDF>
  </metadata>
</svg>
