<?xml version="1.0" encoding="UTF-8" standalone="no"?>
<svg
   viewBox="0 0 48 48"
   version="1.1"
   id="svg2"
   sodipodi:docname="sun.svg"
   inkscape:version="1.4-beta (62f545ba5e, 2024-04-22)"
   xmlns:inkscape="http://www.inkscape.org/namespaces/inkscape"
   xmlns:sodipodi="http://sodipodi.sourceforge.net/DTD/sodipodi-0.dtd"
   xmlns="http://www.w3.org/2000/svg"
   xmlns:svg="http://www.w3.org/2000/svg">
  <defs
     id="defs2" />
  <sodipodi:namedview
     id="namedview2"
     pagecolor="#000000"
     bordercolor="#000000"
     borderopacity="0.25"
     inkscape:showpageshadow="2"
     inkscape:pageopacity="0.0"
     inkscape:pagecheckerboard="0"
     inkscape:deskcolor="#d1d1d1"
     inkscape:zoom="17.854167"
     inkscape:cx="24"
     inkscape:cy="24"
     inkscape:window-width="1920"
     inkscape:window-height="1111"
     inkscape:window-x="-9"
     inkscape:window-y="-9"
     inkscape:window-maximized="1"
     inkscape:current-layer="svg2" />
  <path
     d="M0 0h48v48H0z"
     fill="none"
     id="path1" />
  <path
     fill="white"
     d="M24 34c5.514 0 10-4.486 10-10s-4.486-10-10-10-10 4.486-10 10 4.486 10 10 10zm6-10c0 3.309-2.691 6-6 6s-6-2.691-6-6 2.691-6 6-6 6 2.691 6 6zM22 4h4v6h-4zM22 38h4v6h-4zM4 22h6v4H4zM38 22h6v4h-6zM12.268 7.68l3.464-2 3 5.196-3.464 2zM29.267 37.122l3.465-2 3 5.196-3.465 2zM5.68 32.267l5.195-3 2 3.465-5.195 3zM35.125 15.269l5.196-3 2 3.466-5.196 3zM5.68 15.732l2-3.465 5.196 3-2 3.465zM35.123 32.734l2.001-3.465 5.196 3-2 3.465zM12.267 40.32l3-5.197 3.464 2-3 5.196zM29.269 10.875l3-5.195 3.465 2-3 5.196z"
     id="path2" />
</svg>
