<?xml version="1.0" encoding="UTF-8" standalone="no"?>
<svg
   viewBox="0 0 42 42"
   version="1.1"
   id="svg2"
   sodipodi:docname="sun.svg"
   inkscape:version="1.4-beta (62f545ba5e, 2024-04-22)"
   width="42"
   height="42"
   xmlns:inkscape="http://www.inkscape.org/namespaces/inkscape"
   xmlns:sodipodi="http://sodipodi.sourceforge.net/DTD/sodipodi-0.dtd"
   xmlns="http://www.w3.org/2000/svg"
   xmlns:svg="http://www.w3.org/2000/svg">
  <defs
     id="defs2" />
  <sodipodi:namedview
     id="namedview2"
     pagecolor="#000000"
     bordercolor="#000000"
     borderopacity="0.25"
     inkscape:showpageshadow="2"
     inkscape:pageopacity="0.0"
     inkscape:pagecheckerboard="0"
     inkscape:deskcolor="#d1d1d1"
     inkscape:zoom="17.854167"
     inkscape:cx="24"
     inkscape:cy="24"
     inkscape:window-width="1920"
     inkscape:window-height="1111"
     inkscape:window-x="-9"
     inkscape:window-y="-9"
     inkscape:window-maximized="1"
     inkscape:current-layer="svg2" />
  <path
     d="M 0,0 H 48 V 48 H 0 Z"
     fill="none"
     id="path1" />
  <path
     fill="#ffffff"
     d="m 21,31 c 5.514,0 10,-4.486001 10,-10 0,-5.514 -4.486,-10 -10,-10 -5.514,0 -10,4.486 -10,10 0,5.513999 4.486,10 10,10 z m 6,-10 c 0,3.309 -2.691,6 -6,6 -3.309,0 -6,-2.691 -6,-6 0,-3.309001 2.691,-6 6,-6 3.309,0 6,2.690999 6,6 z M 19,1 h 4 v 6.0000005 h -4 z m 0,34 h 4 v 6 H 19 Z M 1,19 h 5.9999998 v 4 H 1 Z m 34,0 h 6 v 4 H 35 Z M 9.2679998,4.68 12.732,2.68 l 3,5.1960005 -3.464,2 z M 26.267,34.121999 l 3.465,-2 3,5.196 -3.465,2 z m -23.587,-4.855 5.1949998,-3 2,3.465 -5.1949998,3 z m 29.445,-16.998 5.196,-2.9999985 2,3.4659985 -5.196,3 z m -29.445,0.463 2,-3.4649985 5.1959998,2.9999985 -2,3.465 z m 29.443,17.002 2.001,-3.465 5.196,3 -2,3.465 z m -22.8560002,7.586 3.0000002,-5.197 3.464,2 -3,5.196 z M 26.269,7.8750005 29.269,2.68 l 3.465,2 -3,5.1959995 z"
     id="path2" />
</svg>
